# xmcd CD database file
#
# Track frame offsets:
#	150
#	19833
#	40662
#	57073
#	75102
#	92955
#	112423
#	132061
#	149830
#	167473
#
# Disc length: 2512 seconds
#
# Revision: 0
# Processed by: cddbd v1.5.2PL0 Copyright (c) Steve Scherf et al.
# Submitted via: CDex 1.51
#
DISCID=7e09ce0a
DTITLE=The New Standards - Rock and Roll
DYEAR=2009
DGENRE=Jazz
TTITLE0=Rock and Roll (The Velvet Underground)
TTITLE1=Hey Ya (OutKast)
TTITLE2=Such Great Heights (The Postal Service)
TTITLE3=Watching The Detectives (Elvis Costello)
TTITLE4=Androgynous (The Replacements)
TTITLE5=Bring It On Home To Me (Sam Cooke)
TTITLE6=London Calling (The Clash)
TTITLE7=Toxic (Britney Spears)
TTITLE8=Maps (The Yeah Yeah Yeahs)
TTITLE9=Is That All There Is (Peggy Lee) 
EXTD=YEAR: 2009
EXTT0=
EXTT1=
EXTT2=
EXTT3=
EXTT4=
EXTT5=
EXTT6=
EXTT7=
EXTT8=
EXTT9=
PLAYORDER=
